<svg xmlns="http://www.w3.org/2000/svg" xmlns:xlink="http://www.w3.org/1999/xlink" width="500" zoomAndPan="magnify" viewBox="0 0 375 374.999991" height="500" preserveAspectRatio="xMidYMid meet" version="1.0"><defs><clipPath id="348ef29b5a"><path d="M 40 18 L 323 18 L 323 356.96875 L 40 356.96875 Z M 40 18 " clip-rule="nonzero"/></clipPath><clipPath id="4b8234e98a"><path d="M 40 18 L 323 18 L 323 356.96875 L 40 356.96875 Z M 40 18 " clip-rule="nonzero"/></clipPath></defs><rect x="-37.5" width="450" fill="#ffffff" y="-37.499999" height="449.999989" fill-opacity="1"/><rect x="-37.5" width="450" fill="#ffffff" y="-37.499999" height="449.999989" fill-opacity="1"/><rect x="-37.5" width="450" fill="#ffffff" y="-37.499999" height="449.999989" fill-opacity="1"/><g clip-path="url(#348ef29b5a)"><path fill="#000000" d="M 320.480469 273.316406 C 317.808594 279.417969 312.921875 284.109375 306.722656 286.535156 L 131.179688 355.144531 C 128.273438 356.28125 125.222656 356.855469 122.117188 356.855469 C 112.265625 356.855469 103.335938 351.046875 99.351562 342.050781 L 99.28125 341.945312 C 99.253906 341.902344 99.230469 341.855469 99.210938 341.808594 L 98.878906 340.917969 L 42.523438 196.480469 C 37.527344 183.671875 43.871094 169.183594 56.667969 164.179688 L 87.246094 152.230469 L 109.882812 63.597656 C 111.40625 57.648438 116.753906 53.488281 122.890625 53.488281 C 124.007812 53.488281 125.128906 53.628906 126.214844 53.910156 L 142.925781 58.183594 L 146.0625 45.894531 C 147.582031 39.945312 152.929688 35.789062 159.066406 35.789062 C 160.191406 35.789062 161.308594 35.929688 162.398438 36.207031 L 179.101562 40.480469 L 182.242188 28.191406 C 183.761719 22.238281 189.109375 18.082031 195.246094 18.082031 C 196.363281 18.082031 197.480469 18.222656 198.570312 18.503906 L 277.703125 38.75 C 281.171875 39.636719 284.09375 41.828125 285.921875 44.917969 C 287.753906 48.007812 288.273438 51.625 287.386719 55.097656 L 269.890625 123.585938 L 279.4375 148.042969 C 287.992188 148.617188 295.492188 154.117188 298.628906 162.152344 L 307.710938 185.425781 C 309.871094 190.960938 309.746094 197.011719 307.363281 202.453125 C 306.324219 204.832031 304.910156 206.972656 303.152344 208.832031 L 320.871094 254.234375 C 323.289062 260.4375 323.152344 267.21875 320.480469 273.316406 Z M 320.480469 273.316406 " fill-opacity="1" fill-rule="nonzero"/></g><path fill="#6ec565" d="M 120.503906 66.316406 C 120.789062 65.203125 121.792969 64.460938 122.894531 64.460938 C 123.09375 64.460938 123.296875 64.488281 123.503906 64.539062 L 148.214844 70.863281 L 147.332031 74.324219 L 137.789062 71.882812 C 137.351562 71.769531 136.890625 71.882812 136.554688 72.183594 C 136.222656 72.484375 136.058594 72.933594 136.121094 73.378906 C 136.28125 74.515625 136.21875 75.65625 135.933594 76.777344 C 134.734375 81.464844 129.949219 84.296875 125.265625 83.101562 C 124.152344 82.816406 123.117188 82.324219 122.199219 81.636719 C 121.839844 81.371094 121.367188 81.296875 120.945312 81.445312 C 120.519531 81.597656 120.199219 81.949219 120.085938 82.386719 L 92.058594 192.113281 L 87.964844 193.714844 Z M 124.597656 85.71875 C 123.777344 85.507812 122.988281 85.210938 122.246094 84.832031 L 95.148438 190.90625 L 108.082031 185.851562 C 107.335938 177.710938 108.105469 168.78125 110.386719 159.851562 C 114.917969 142.113281 124.582031 128.019531 135.234375 121.683594 L 146.664062 76.9375 L 138.898438 74.953125 C 138.871094 75.789062 138.753906 76.621094 138.542969 77.445312 C 136.980469 83.574219 130.722656 87.289062 124.597656 85.71875 Z M 134.28125 125.421875 C 125.1875 131.9375 117.035156 144.722656 113 160.519531 C 110.867188 168.875 110.101562 177.207031 110.703125 184.828125 L 120.039062 181.179688 L 122.882812 170.035156 C 122.804688 169.789062 122.71875 169.550781 122.652344 169.289062 C 122.226562 167.550781 122.199219 165.691406 122.574219 163.710938 L 118.726562 162.726562 C 118.324219 162.625 118.023438 162.421875 117.820312 162.125 C 117.617188 161.824219 117.566406 161.476562 117.667969 161.074219 C 117.761719 160.703125 117.972656 160.433594 118.292969 160.269531 C 118.617188 160.105469 118.976562 160.074219 119.378906 160.175781 L 123.226562 161.160156 C 123.8125 159.5 124.632812 157.964844 125.6875 156.554688 C 125.976562 156.160156 126.289062 155.800781 126.609375 155.457031 Z M 123.128906 179.96875 L 127.222656 178.371094 L 156.261719 64.683594 C 156.375 64.246094 156.695312 63.894531 157.121094 63.746094 C 157.542969 63.59375 158.015625 63.664062 158.375 63.933594 C 159.296875 64.621094 160.328125 65.113281 161.445312 65.398438 C 163.710938 65.976562 166.070312 65.640625 168.085938 64.449219 C 170.101562 63.253906 171.527344 61.34375 172.109375 59.074219 C 172.394531 57.957031 172.457031 56.8125 172.296875 55.675781 C 172.234375 55.230469 172.398438 54.78125 172.734375 54.480469 C 173.066406 54.183594 173.53125 54.066406 173.964844 54.179688 L 183.511719 56.621094 L 184.394531 53.160156 L 159.679688 46.835938 C 159.476562 46.785156 159.269531 46.757812 159.066406 46.757812 C 158.628906 46.757812 158.199219 46.875 157.8125 47.105469 C 157.246094 47.441406 156.847656 47.976562 156.683594 48.613281 Z M 130.316406 177.160156 L 144.722656 171.53125 C 143.40625 162.746094 143.902344 152.578125 146.566406 142.148438 C 151.097656 124.410156 160.757812 110.324219 171.410156 103.988281 L 182.84375 59.234375 L 175.078125 57.25 C 175.050781 58.085938 174.933594 58.917969 174.722656 59.742188 C 173.964844 62.710938 172.097656 65.207031 169.460938 66.769531 C 166.828125 68.332031 163.742188 68.773438 160.777344 68.015625 C 159.957031 67.804688 159.167969 67.507812 158.421875 67.128906 Z M 149.179688 142.816406 C 146.660156 152.675781 146.117188 162.269531 147.238281 170.546875 L 155.207031 167.433594 L 159.0625 152.332031 C 158.984375 152.085938 158.894531 151.847656 158.832031 151.585938 C 158.40625 149.847656 158.378906 147.988281 158.75 146.007812 L 154.90625 145.023438 C 154.503906 144.921875 154.203125 144.71875 154 144.421875 C 153.796875 144.121094 153.746094 143.769531 153.847656 143.367188 C 153.941406 142.996094 154.152344 142.730469 154.472656 142.566406 C 154.792969 142.398438 155.15625 142.367188 155.558594 142.472656 L 159.402344 143.457031 C 159.992188 141.796875 160.8125 140.257812 161.863281 138.847656 C 162.15625 138.457031 162.46875 138.09375 162.789062 137.753906 L 170.457031 107.71875 C 161.367188 114.234375 153.214844 127.019531 149.179688 142.816406 Z M 158.296875 166.226562 L 162.390625 164.625 L 192.441406 46.980469 C 192.550781 46.542969 192.875 46.191406 193.296875 46.039062 C 193.722656 45.890625 194.191406 45.960938 194.554688 46.230469 C 195.472656 46.917969 196.507812 47.410156 197.621094 47.695312 C 202.304688 48.894531 207.089844 46.054688 208.285156 41.367188 C 208.570312 40.25 208.636719 39.109375 208.476562 37.972656 C 208.410156 37.523438 208.574219 37.078125 208.910156 36.777344 C 209.246094 36.476562 209.707031 36.363281 210.144531 36.476562 L 258.933594 48.960938 C 259.371094 49.070312 259.722656 49.390625 259.871094 49.816406 C 260.019531 50.242188 259.949219 50.710938 259.679688 51.074219 C 258.996094 51.992188 258.5 53.027344 258.214844 54.144531 C 257.636719 56.414062 257.976562 58.777344 259.167969 60.792969 C 260.363281 62.808594 262.269531 64.238281 264.539062 64.816406 C 265.65625 65.105469 266.796875 65.167969 267.933594 65.007812 C 268.378906 64.945312 268.828125 65.105469 269.125 65.441406 C 269.425781 65.777344 269.539062 66.242188 269.429688 66.675781 L 253.082031 130.675781 C 254.273438 130.726562 255.460938 130.902344 256.628906 131.210938 L 276.765625 52.378906 C 277.101562 51.0625 276.304688 49.714844 274.988281 49.378906 L 195.859375 29.132812 C 195.65625 29.078125 195.449219 29.054688 195.25 29.054688 C 194.148438 29.054688 193.144531 29.796875 192.859375 30.910156 Z M 194.601562 49.425781 C 195.347656 49.804688 196.132812 50.101562 196.953125 50.3125 C 203.078125 51.878906 209.335938 48.167969 210.898438 42.035156 C 211.109375 41.214844 211.230469 40.382812 211.253906 39.542969 L 256.488281 51.121094 C 256.109375 51.867188 255.8125 52.652344 255.605469 53.476562 C 254.847656 56.445312 255.289062 59.53125 256.847656 62.167969 C 258.410156 64.804688 260.902344 66.675781 263.871094 67.433594 C 264.691406 67.644531 265.523438 67.761719 266.359375 67.789062 L 250.265625 130.800781 C 248.941406 130.972656 247.628906 131.308594 246.351562 131.808594 L 242.054688 133.488281 C 244.042969 122.59375 243.777344 111.957031 241.214844 103.027344 C 238.125 92.261719 232.082031 85.222656 224.195312 83.207031 C 216.3125 81.191406 207.632812 84.460938 199.761719 92.421875 C 192.074219 100.191406 186.03125 111.566406 182.742188 124.445312 C 179.8125 135.914062 179.378906 147.378906 181.445312 157.175781 L 165.480469 163.414062 Z M 226.195312 75.386719 C 227.105469 75.617188 228.023438 75.734375 228.941406 75.734375 C 230.890625 75.734375 232.8125 75.210938 234.53125 74.191406 C 237.0625 72.691406 238.855469 70.292969 239.582031 67.445312 C 241.085938 61.558594 237.523438 55.550781 231.648438 54.046875 C 228.800781 53.316406 225.839844 53.742188 223.308594 55.242188 C 220.78125 56.742188 218.988281 59.136719 218.261719 61.988281 C 216.757812 67.871094 220.316406 73.882812 226.195312 75.386719 Z M 239.085938 134.648438 C 241.339844 123.589844 241.199219 112.753906 238.625 103.773438 C 235.8125 93.96875 230.449219 87.59375 223.53125 85.820312 C 222.238281 85.492188 220.914062 85.328125 219.570312 85.328125 C 213.730469 85.328125 207.511719 88.425781 201.679688 94.320312 C 194.328125 101.757812 188.527344 112.691406 185.355469 125.113281 C 182.570312 136.015625 182.109375 146.886719 183.992188 156.183594 L 223.136719 140.882812 C 224.523438 139.128906 225.476562 137.242188 225.996094 135.214844 C 226.660156 132.617188 226.617188 130.441406 225.863281 128.683594 C 225.109375 126.925781 223.714844 125.789062 221.675781 125.265625 C 220.46875 124.957031 219.394531 125.078125 218.449219 125.625 C 217.503906 126.175781 216.6875 126.953125 216 127.964844 C 215.3125 128.972656 214.480469 130.375 213.496094 132.164062 C 212.308594 134.363281 211.246094 136.109375 210.304688 137.402344 C 209.367188 138.695312 208.175781 139.691406 206.726562 140.390625 C 205.28125 141.09375 203.554688 141.183594 201.546875 140.671875 C 199.878906 140.246094 198.480469 139.441406 197.347656 138.261719 C 196.21875 137.082031 195.4375 135.625 195.011719 133.882812 C 194.582031 132.144531 194.554688 130.285156 194.929688 128.304688 L 191.082031 127.320312 C 190.683594 127.21875 190.378906 127.015625 190.175781 126.71875 C 189.972656 126.417969 189.921875 126.070312 190.023438 125.667969 C 190.121094 125.292969 190.328125 125.027344 190.648438 124.863281 C 190.972656 124.699219 191.332031 124.667969 191.734375 124.769531 L 195.582031 125.753906 C 196.171875 124.09375 196.992188 122.558594 198.042969 121.144531 C 199.09375 119.734375 200.324219 118.652344 201.738281 117.890625 C 202.242188 117.59375 202.742188 117.503906 203.234375 117.632812 C 203.574219 117.71875 203.84375 117.894531 204.039062 118.160156 C 204.234375 118.425781 204.300781 118.679688 204.238281 118.925781 C 204.144531 119.296875 203.898438 119.613281 203.5 119.875 C 201.894531 121.011719 200.644531 122.175781 199.746094 123.363281 C 198.851562 124.550781 198.175781 126.039062 197.714844 127.832031 C 197.070312 130.367188 197.148438 132.53125 197.960938 134.320312 C 198.769531 136.109375 200.195312 137.261719 202.234375 137.785156 C 203.625 138.140625 204.855469 138.027344 205.925781 137.445312 C 206.996094 136.863281 207.898438 136.03125 208.636719 134.953125 C 209.375 133.871094 210.242188 132.40625 211.242188 130.550781 C 212.375 128.4375 213.386719 126.761719 214.277344 125.523438 C 215.171875 124.285156 216.285156 123.335938 217.621094 122.671875 C 218.960938 122.011719 220.554688 121.917969 222.410156 122.390625 C 224.820312 123.007812 226.613281 124.398438 227.789062 126.558594 C 228.964844 128.722656 229.324219 131.277344 228.867188 134.222656 L 232.761719 135.21875 C 233.160156 135.320312 233.464844 135.523438 233.667969 135.820312 C 233.839844 136.074219 233.894531 136.371094 233.847656 136.699219 Z M 228.25 136.828125 C 227.996094 137.65625 227.679688 138.457031 227.316406 139.25 L 231.425781 137.640625 Z M 226.863281 72.769531 C 229.011719 73.320312 231.25 73 233.15625 71.867188 C 235.066406 70.734375 236.417969 68.925781 236.96875 66.773438 C 238.105469 62.332031 235.417969 57.796875 230.980469 56.660156 C 230.292969 56.484375 229.597656 56.398438 228.90625 56.398438 C 227.433594 56.398438 225.984375 56.792969 224.6875 57.5625 C 222.777344 58.695312 221.421875 60.503906 220.875 62.65625 C 219.738281 67.097656 222.425781 71.636719 226.863281 72.769531 Z M 226.863281 72.769531 " fill-opacity="1" fill-rule="nonzero"/><path fill="#df7a2c" d="M 60.65625 174.402344 L 93.378906 161.613281 L 88.839844 179.386719 L 53.121094 193.347656 C 52.988281 193.0625 52.851562 192.785156 52.734375 192.492188 C 51.378906 189.015625 51.457031 185.222656 52.953125 181.804688 C 54.449219 178.386719 57.183594 175.757812 60.65625 174.402344 Z M 127.191406 344.925781 C 121.425781 347.179688 115.058594 345.3125 111.328125 340.761719 C 111.835938 340.820312 112.394531 340.855469 113.011719 340.855469 L 113.105469 340.855469 C 113.847656 340.851562 114.449219 340.242188 114.445312 339.496094 C 114.441406 338.753906 113.839844 338.15625 113.097656 338.15625 L 113.089844 338.15625 C 110.515625 338.15625 109.339844 337.546875 109.121094 337.003906 C 109.121094 337 109.121094 337 109.117188 336.996094 L 64.757812 223.300781 C 65.625 223.578125 66.558594 223.785156 67.5625 223.910156 C 67.617188 223.917969 67.675781 223.921875 67.730469 223.921875 C 68.402344 223.921875 68.980469 223.425781 69.070312 222.742188 C 69.160156 222.003906 68.640625 221.328125 67.898438 221.234375 C 66.054688 221 64.53125 220.460938 63.332031 219.652344 L 60.128906 211.4375 C 64.554688 214.601562 70.445312 215.539062 75.878906 213.417969 L 251.425781 144.808594 C 258.589844 142.003906 266.699219 145.5625 269.496094 152.734375 L 271.949219 159.023438 L 273.507812 163.007812 L 280.542969 181.039062 L 227.90625 201.613281 C 227.460938 201.789062 227.023438 201.984375 226.605469 202.199219 C 221.574219 204.78125 218.671875 210.136719 219.054688 215.621094 C 219.152344 216.988281 219.453125 218.371094 219.980469 219.714844 C 221.335938 223.191406 223.964844 225.933594 227.382812 227.4375 C 227.832031 227.636719 228.285156 227.808594 228.746094 227.957031 C 230.128906 228.398438 231.554688 228.621094 232.984375 228.621094 C 234.699219 228.621094 236.421875 228.300781 238.070312 227.65625 L 290.53125 207.152344 L 294.304688 216.308594 L 310.660156 258.226562 C 312.015625 261.699219 311.9375 265.496094 310.441406 268.914062 C 308.945312 272.328125 306.207031 274.957031 302.738281 276.316406 Z M 158.722656 323.546875 C 158.453125 322.851562 157.671875 322.511719 156.976562 322.78125 L 146.003906 327.070312 C 145.308594 327.339844 144.964844 328.125 145.238281 328.816406 C 145.445312 329.351562 145.953125 329.675781 146.492188 329.675781 C 146.65625 329.675781 146.820312 329.648438 146.984375 329.585938 L 157.957031 325.296875 C 158.652344 325.023438 158.992188 324.242188 158.722656 323.546875 Z M 283.105469 214.511719 L 287.390625 225.496094 C 287.597656 226.027344 288.109375 226.355469 288.648438 226.355469 C 288.808594 226.355469 288.976562 226.324219 289.136719 226.261719 C 289.832031 225.988281 290.171875 225.207031 289.902344 224.511719 L 285.617188 213.527344 C 285.347656 212.835938 284.566406 212.492188 283.871094 212.761719 C 283.179688 213.035156 282.835938 213.816406 283.105469 214.511719 Z M 180.667969 314.96875 C 180.398438 314.273438 179.617188 313.933594 178.921875 314.203125 L 167.949219 318.492188 C 167.253906 318.765625 166.914062 319.546875 167.183594 320.242188 C 167.390625 320.773438 167.902344 321.101562 168.441406 321.101562 C 168.601562 321.101562 168.769531 321.070312 168.929688 321.007812 L 179.902344 316.71875 C 180.597656 316.445312 180.941406 315.664062 180.667969 314.96875 Z M 202.617188 306.390625 C 202.347656 305.699219 201.5625 305.355469 200.871094 305.625 L 189.898438 309.914062 C 189.203125 310.1875 188.859375 310.96875 189.132812 311.664062 C 189.339844 312.195312 189.847656 312.523438 190.386719 312.523438 C 190.550781 312.523438 190.714844 312.492188 190.878906 312.429688 L 201.851562 308.140625 C 202.546875 307.867188 202.886719 307.085938 202.617188 306.390625 Z M 224.5625 297.8125 C 224.292969 297.117188 223.511719 296.777344 222.816406 297.046875 L 211.84375 301.335938 C 211.148438 301.609375 210.808594 302.390625 211.078125 303.085938 C 211.285156 303.617188 211.792969 303.945312 212.335938 303.945312 C 212.496094 303.945312 212.664062 303.914062 212.824219 303.851562 L 223.796875 299.5625 C 224.492188 299.289062 224.835938 298.507812 224.5625 297.8125 Z M 246.511719 289.234375 C 246.242188 288.542969 245.457031 288.199219 244.765625 288.46875 L 233.789062 292.757812 C 233.097656 293.03125 232.753906 293.8125 233.023438 294.507812 C 233.234375 295.039062 233.742188 295.367188 234.28125 295.367188 C 234.445312 295.367188 234.609375 295.335938 234.773438 295.273438 L 245.746094 290.984375 C 246.4375 290.714844 246.78125 289.929688 246.511719 289.234375 Z M 268.457031 280.65625 C 268.1875 279.964844 267.40625 279.621094 266.710938 279.890625 L 255.738281 284.179688 C 255.042969 284.453125 254.699219 285.234375 254.972656 285.929688 C 255.179688 286.460938 255.6875 286.789062 256.226562 286.789062 C 256.390625 286.789062 256.558594 286.757812 256.71875 286.695312 L 267.691406 282.40625 C 268.386719 282.136719 268.730469 281.351562 268.457031 280.65625 Z M 290.40625 272.082031 C 290.132812 271.386719 289.351562 271.042969 288.65625 271.3125 L 277.683594 275.601562 C 276.992188 275.875 276.648438 276.65625 276.917969 277.351562 C 277.125 277.886719 277.636719 278.210938 278.175781 278.210938 C 278.339844 278.210938 278.503906 278.179688 278.664062 278.117188 L 289.640625 273.828125 C 290.332031 273.558594 290.675781 272.773438 290.40625 272.082031 Z M 304.535156 263.300781 C 304.535156 262.445312 304.375 261.605469 304.0625 260.804688 L 302.757812 257.460938 C 302.488281 256.765625 301.707031 256.421875 301.011719 256.695312 C 300.320312 256.964844 299.976562 257.75 300.246094 258.441406 L 301.550781 261.785156 C 301.742188 262.273438 301.839844 262.78125 301.839844 263.300781 C 301.839844 264.878906 300.925781 266.355469 299.515625 267.054688 C 298.847656 267.382812 298.574219 268.195312 298.90625 268.863281 C 299.140625 269.335938 299.617188 269.613281 300.117188 269.613281 C 300.316406 269.613281 300.519531 269.566406 300.714844 269.472656 C 303.035156 268.320312 304.535156 265.898438 304.535156 263.300781 Z M 291.675781 236.476562 L 295.960938 247.460938 C 296.167969 247.992188 296.679688 248.320312 297.21875 248.320312 C 297.378906 248.320312 297.546875 248.289062 297.707031 248.226562 C 298.402344 247.953125 298.746094 247.171875 298.472656 246.476562 L 294.1875 235.496094 C 293.917969 234.800781 293.136719 234.460938 292.441406 234.726562 C 291.75 235 291.40625 235.78125 291.675781 236.476562 Z M 268.476562 169.597656 C 268.207031 168.902344 267.421875 168.5625 266.730469 168.832031 C 266.035156 169.101562 265.695312 169.886719 265.964844 170.582031 L 270.25 181.5625 C 270.457031 182.097656 270.964844 182.421875 271.507812 182.421875 C 271.667969 182.421875 271.835938 182.390625 271.996094 182.328125 C 272.691406 182.058594 273.03125 181.277344 272.761719 180.582031 Z M 253.617188 152.910156 C 253.832031 153.625 254.582031 154.027344 255.296875 153.8125 C 255.6875 153.695312 256.089844 153.636719 256.492188 153.632812 C 258.203125 153.632812 259.769531 154.703125 260.390625 156.296875 L 261.679688 159.597656 C 261.886719 160.128906 262.394531 160.457031 262.9375 160.457031 C 263.097656 160.457031 263.265625 160.425781 263.425781 160.363281 C 264.121094 160.089844 264.460938 159.308594 264.191406 158.617188 L 262.902344 155.3125 C 261.882812 152.695312 259.304688 150.9375 256.492188 150.9375 C 255.824219 150.9375 255.160156 151.035156 254.515625 151.230469 C 253.804688 151.445312 253.402344 152.199219 253.617188 152.910156 Z M 231.699219 161.574219 C 231.90625 162.105469 232.414062 162.433594 232.953125 162.433594 C 233.117188 162.433594 233.28125 162.402344 233.445312 162.339844 L 244.417969 158.050781 C 245.113281 157.777344 245.453125 156.996094 245.183594 156.300781 C 244.914062 155.609375 244.132812 155.265625 243.4375 155.535156 L 232.464844 159.824219 C 231.769531 160.097656 231.425781 160.878906 231.699219 161.574219 Z M 209.75 170.152344 C 209.957031 170.683594 210.46875 171.007812 211.007812 171.007812 C 211.167969 171.007812 211.335938 170.980469 211.496094 170.917969 L 222.46875 166.628906 C 223.164062 166.355469 223.507812 165.574219 223.234375 164.878906 C 222.964844 164.1875 222.183594 163.84375 221.488281 164.113281 L 210.515625 168.402344 C 209.820312 168.671875 209.480469 169.457031 209.75 170.152344 Z M 188.570312 176.980469 C 187.875 177.253906 187.53125 178.035156 187.804688 178.730469 C 188.011719 179.261719 188.519531 179.589844 189.058594 179.589844 C 189.222656 179.589844 189.390625 179.558594 189.550781 179.496094 L 200.523438 175.207031 C 201.21875 174.933594 201.558594 174.152344 201.289062 173.457031 C 201.019531 172.765625 200.234375 172.421875 199.542969 172.691406 Z M 166.621094 185.558594 C 165.925781 185.828125 165.585938 186.613281 165.855469 187.304688 C 166.0625 187.839844 166.574219 188.164062 167.113281 188.164062 C 167.277344 188.164062 167.441406 188.132812 167.601562 188.074219 L 178.578125 183.785156 C 179.269531 183.511719 179.613281 182.730469 179.34375 182.035156 C 179.070312 181.339844 178.289062 180.996094 177.59375 181.269531 Z M 143.910156 195.882812 C 144.117188 196.417969 144.625 196.742188 145.164062 196.742188 C 145.328125 196.742188 145.496094 196.714844 145.65625 196.652344 L 156.628906 192.363281 C 157.324219 192.089844 157.664062 191.308594 157.394531 190.613281 C 157.125 189.917969 156.34375 189.574219 155.648438 189.847656 L 144.675781 194.136719 C 143.980469 194.40625 143.636719 195.191406 143.910156 195.882812 Z M 121.960938 204.460938 C 122.167969 204.996094 122.679688 205.320312 123.21875 205.320312 C 123.382812 205.320312 123.546875 205.289062 123.707031 205.230469 L 134.683594 200.941406 C 135.375 200.667969 135.71875 199.886719 135.449219 199.191406 C 135.175781 198.496094 134.394531 198.15625 133.699219 198.425781 L 122.726562 202.714844 C 122.035156 202.984375 121.691406 203.769531 121.960938 204.460938 Z M 100.015625 213.039062 C 100.222656 213.574219 100.730469 213.898438 101.269531 213.898438 C 101.433594 213.898438 101.601562 213.871094 101.761719 213.808594 L 112.734375 209.519531 C 113.429688 209.246094 113.773438 208.464844 113.5 207.769531 C 113.230469 207.074219 112.449219 206.734375 111.753906 207.003906 L 100.78125 211.292969 C 100.085938 211.5625 99.746094 212.347656 100.015625 213.039062 Z M 78.066406 221.617188 C 78.277344 222.152344 78.785156 222.476562 79.324219 222.476562 C 79.488281 222.476562 79.652344 222.445312 79.8125 222.386719 L 90.789062 218.097656 C 91.480469 217.824219 91.824219 217.042969 91.554688 216.347656 C 91.28125 215.652344 90.5 215.3125 89.808594 215.582031 L 78.832031 219.871094 C 78.140625 220.140625 77.796875 220.925781 78.066406 221.617188 Z M 125.035156 338.164062 L 136.011719 333.875 C 136.703125 333.601562 137.046875 332.820312 136.777344 332.125 C 136.503906 331.429688 135.722656 331.089844 135.03125 331.359375 L 124.054688 335.648438 C 123.363281 335.917969 123.019531 336.699219 123.289062 337.394531 C 123.496094 337.929688 124.007812 338.253906 124.546875 338.253906 C 124.710938 338.253906 124.875 338.226562 125.035156 338.164062 Z M 125.035156 338.164062 " fill-opacity="1" fill-rule="nonzero"/><path fill="#e4e13e" d="M 274.976562 159.359375 L 277.867188 166.765625 C 279.3125 166.917969 280.597656 167.859375 281.148438 169.269531 L 284.59375 178.097656 C 285.289062 179.886719 284.613281 181.914062 282.980469 182.917969 C 282.757812 183.050781 282.546875 183.152344 282.335938 183.234375 L 228.886719 204.125 C 224.546875 205.824219 221.847656 209.933594 221.722656 214.324219 C 221.679688 215.789062 221.925781 217.285156 222.488281 218.734375 C 222.761719 219.433594 223.101562 220.101562 223.496094 220.722656 C 224.6875 222.585938 226.394531 224.058594 228.464844 224.96875 C 231.21875 226.175781 234.28125 226.238281 237.085938 225.140625 L 291.101562 204.03125 C 296.890625 201.769531 299.757812 195.214844 297.496094 189.417969 L 288.414062 166.144531 C 287.320312 163.335938 285.199219 161.128906 282.441406 159.917969 C 280.0625 158.871094 277.453125 158.679688 274.976562 159.359375 Z M 237.902344 222.0625 C 236.875 222.464844 235.816406 222.65625 234.773438 222.65625 C 231.316406 222.65625 228.046875 220.566406 226.71875 217.15625 C 224.984375 212.714844 227.183594 207.691406 231.621094 205.957031 C 236.058594 204.226562 241.074219 206.425781 242.808594 210.867188 C 244.539062 215.308594 242.339844 220.328125 237.902344 222.0625 Z M 237.902344 222.0625 " fill-opacity="1" fill-rule="nonzero"/><path fill="#ffffff" d="M 306.234375 285.277344 C 312.097656 282.984375 316.71875 278.546875 319.246094 272.777344 C 321.773438 267.003906 321.902344 260.59375 319.613281 254.726562 L 301.742188 208.917969 C 301.644531 208.671875 301.703125 208.390625 301.886719 208.199219 C 303.667969 206.386719 305.09375 204.273438 306.128906 201.914062 C 308.367188 196.796875 308.484375 191.117188 306.453125 185.917969 L 297.371094 162.640625 C 294.332031 154.847656 287.265625 149.761719 278.933594 149.367188 C 278.667969 149.355469 278.433594 149.183594 278.335938 148.9375 L 268.558594 123.871094 C 268.507812 123.742188 268.496094 123.597656 268.53125 123.460938 L 286.082031 54.761719 C 286.878906 51.636719 286.410156 48.386719 284.761719 45.605469 C 283.117188 42.828125 280.492188 40.855469 277.371094 40.058594 L 198.238281 19.808594 C 197.257812 19.558594 196.25 19.433594 195.246094 19.433594 C 189.726562 19.433594 184.914062 23.171875 183.546875 28.527344 L 180.242188 41.46875 C 180.199219 41.644531 180.085938 41.792969 179.933594 41.882812 C 179.777344 41.972656 179.59375 42 179.421875 41.957031 L 162.0625 37.515625 C 161.085938 37.261719 160.074219 37.136719 159.066406 37.136719 C 153.546875 37.136719 148.738281 40.875 147.371094 46.230469 L 144.0625 59.171875 C 144.019531 59.347656 143.90625 59.496094 143.753906 59.585938 C 143.601562 59.675781 143.417969 59.703125 143.242188 59.660156 L 125.882812 55.214844 C 124.902344 54.964844 123.898438 54.839844 122.890625 54.839844 C 117.371094 54.839844 112.558594 58.578125 111.191406 63.933594 L 88.464844 152.902344 C 88.414062 153.113281 88.261719 153.285156 88.058594 153.363281 L 57.160156 165.4375 C 45.054688 170.167969 39.054688 183.875 43.78125 195.992188 L 100.507812 341.351562 C 100.527344 341.382812 100.546875 341.417969 100.5625 341.453125 C 104.320312 349.988281 112.78125 355.507812 122.117188 355.507812 C 125.054688 355.507812 127.9375 354.960938 130.6875 353.886719 Z M 122.136719 348.582031 C 115.566406 348.582031 109.351562 344.65625 106.722656 338.238281 C 106.679688 338.152344 106.640625 338.066406 106.605469 337.980469 C 106.605469 337.976562 106.605469 337.972656 106.605469 337.96875 L 102.515625 327.496094 L 69.132812 241.933594 L 66.628906 235.523438 L 60.964844 221 C 60.960938 220.996094 60.960938 220.996094 60.960938 220.992188 L 55.597656 207.242188 L 54.320312 203.972656 C 54.316406 203.96875 54.316406 203.960938 54.3125 203.953125 L 53.972656 203.078125 L 53.144531 200.960938 L 51.054688 195.601562 L 50.222656 193.472656 C 48.605469 189.324219 48.695312 184.796875 50.480469 180.722656 C 52.265625 176.644531 55.53125 173.507812 59.675781 171.886719 L 94.203125 158.390625 L 117.890625 65.648438 C 118.597656 62.886719 121.414062 61.21875 124.167969 61.921875 L 148.882812 68.246094 L 154.070312 47.945312 C 154.410156 46.605469 155.253906 45.484375 156.4375 44.78125 C 157.625 44.078125 159.011719 43.875 160.347656 44.21875 L 185.0625 50.542969 L 190.246094 30.242188 C 190.953125 27.480469 193.769531 25.8125 196.527344 26.515625 L 275.65625 46.761719 C 278.414062 47.46875 280.082031 50.285156 279.378906 53.046875 L 261.226562 124.113281 L 267.917969 141.265625 L 273.992188 156.835938 C 277.144531 155.90625 280.484375 156.105469 283.527344 157.441406 C 286.941406 158.941406 289.570312 161.679688 290.929688 165.15625 L 300.011719 188.433594 C 302.664062 195.230469 299.613281 202.867188 293.191406 206.039062 L 300.292969 224.234375 L 313.167969 257.238281 C 314.789062 261.386719 314.695312 265.917969 312.910156 269.992188 C 311.121094 274.070312 307.859375 277.207031 303.714844 278.824219 L 128.171875 347.4375 C 126.191406 348.214844 124.148438 348.582031 122.136719 348.582031 Z M 88.019531 182.605469 L 86.394531 188.960938 L 59.039062 199.652344 C 57.285156 198.691406 55.738281 197.351562 54.519531 195.695312 Z M 260.082031 128.601562 L 262.105469 133.789062 C 261.199219 133.140625 260.222656 132.578125 259.183594 132.113281 Z M 84.871094 194.921875 L 70.808594 200.417969 C 68.175781 201.449219 65.421875 201.613281 62.84375 201.0625 L 85.570312 192.179688 Z M 74.898438 210.902344 C 67.734375 213.707031 59.625 210.148438 56.828125 202.972656 L 56.039062 200.953125 C 60.464844 204.117188 66.355469 205.058594 71.789062 202.933594 L 247.335938 134.324219 C 250.804688 132.964844 254.597656 133.042969 258.011719 134.542969 C 261.425781 136.039062 264.050781 138.777344 265.40625 142.25 L 266.199219 144.28125 C 261.769531 141.113281 255.882812 140.167969 250.441406 142.292969 Z M 229.230469 216.175781 C 228.039062 213.121094 229.550781 209.664062 232.601562 208.472656 C 233.308594 208.195312 234.039062 208.066406 234.753906 208.066406 C 237.132812 208.066406 239.378906 209.503906 240.296875 211.847656 C 241.488281 214.902344 239.972656 218.355469 236.921875 219.550781 C 233.871094 220.742188 230.421875 219.226562 229.230469 216.175781 Z M 229.230469 216.175781 " fill-opacity="1" fill-rule="nonzero"/><g clip-path="url(#4b8234e98a)"><path fill="#000000" d="M 320.867188 254.234375 L 303.152344 208.832031 C 304.90625 206.972656 306.324219 204.832031 307.363281 202.453125 C 309.746094 197.011719 309.871094 190.964844 307.710938 185.425781 L 298.628906 162.152344 C 295.492188 154.117188 287.992188 148.617188 279.433594 148.042969 L 269.890625 123.585938 L 287.386719 55.097656 C 288.273438 51.625 287.753906 48.007812 285.921875 44.917969 C 284.089844 41.828125 281.171875 39.636719 277.703125 38.75 L 198.574219 18.503906 C 197.484375 18.222656 196.363281 18.082031 195.246094 18.082031 C 189.109375 18.082031 183.761719 22.238281 182.242188 28.191406 L 179.101562 40.480469 L 162.398438 36.207031 C 161.308594 35.929688 160.1875 35.785156 159.066406 35.785156 C 152.929688 35.785156 147.582031 39.945312 146.0625 45.894531 L 142.921875 58.183594 L 126.214844 53.90625 C 125.128906 53.628906 124.007812 53.488281 122.886719 53.488281 C 116.75 53.488281 111.402344 57.644531 109.882812 63.597656 L 87.246094 152.230469 L 56.671875 164.179688 C 43.871094 169.183594 37.527344 183.671875 42.523438 196.480469 L 98.878906 340.917969 L 99.210938 341.808594 C 99.230469 341.855469 99.253906 341.902344 99.28125 341.945312 L 99.351562 342.050781 C 103.335938 351.046875 112.265625 356.855469 122.117188 356.855469 C 125.222656 356.855469 128.273438 356.28125 131.179688 355.144531 L 306.722656 286.535156 C 312.921875 284.109375 317.808594 279.417969 320.480469 273.316406 C 323.152344 267.21875 323.289062 260.4375 320.867188 254.234375 Z M 122.117188 355.507812 C 112.78125 355.507812 104.320312 349.992188 100.5625 341.453125 C 100.546875 341.417969 100.527344 341.382812 100.507812 341.351562 L 43.78125 195.992188 C 39.054688 183.875 45.054688 170.171875 57.160156 165.441406 L 88.058594 153.363281 C 88.261719 153.285156 88.414062 153.113281 88.464844 152.902344 L 111.191406 63.933594 C 112.558594 58.578125 117.371094 54.839844 122.890625 54.839844 C 123.898438 54.839844 124.90625 54.96875 125.882812 55.214844 L 143.242188 59.660156 C 143.417969 59.703125 143.601562 59.675781 143.753906 59.585938 C 143.910156 59.496094 144.019531 59.347656 144.0625 59.171875 L 147.371094 46.230469 C 148.738281 40.875 153.546875 37.136719 159.066406 37.136719 C 160.078125 37.136719 161.085938 37.265625 162.0625 37.515625 L 179.421875 41.957031 C 179.59375 42 179.777344 41.972656 179.933594 41.882812 C 180.085938 41.792969 180.199219 41.644531 180.242188 41.46875 L 183.546875 28.527344 C 184.914062 23.171875 189.726562 19.433594 195.246094 19.433594 C 196.25 19.433594 197.257812 19.558594 198.238281 19.808594 L 277.371094 40.058594 C 280.492188 40.855469 283.117188 42.828125 284.761719 45.605469 C 286.410156 48.386719 286.878906 51.640625 286.082031 54.761719 L 268.53125 123.460938 C 268.496094 123.597656 268.507812 123.742188 268.558594 123.871094 L 278.335938 148.9375 C 278.433594 149.1875 278.667969 149.355469 278.933594 149.367188 C 287.265625 149.761719 294.332031 154.847656 297.371094 162.640625 L 306.453125 185.917969 C 308.484375 191.117188 308.367188 196.796875 306.128906 201.914062 C 305.097656 204.273438 303.667969 206.386719 301.886719 208.199219 C 301.703125 208.390625 301.644531 208.671875 301.742188 208.917969 L 319.613281 254.726562 C 321.902344 260.59375 321.773438 267.003906 319.246094 272.777344 C 316.71875 278.546875 312.097656 282.984375 306.234375 285.277344 L 130.6875 353.886719 C 127.9375 354.960938 125.054688 355.507812 122.117188 355.507812 Z M 226.195312 75.386719 C 227.105469 75.617188 228.023438 75.734375 228.941406 75.734375 C 230.890625 75.734375 232.8125 75.210938 234.53125 74.191406 C 237.0625 72.691406 238.855469 70.292969 239.582031 67.445312 C 241.085938 61.558594 237.523438 55.550781 231.648438 54.046875 C 228.800781 53.316406 225.839844 53.742188 223.308594 55.242188 C 220.78125 56.742188 218.988281 59.136719 218.261719 61.988281 C 216.757812 67.871094 220.316406 73.882812 226.195312 75.386719 Z M 220.871094 62.65625 C 221.421875 60.503906 222.777344 58.695312 224.683594 57.5625 C 225.984375 56.792969 227.433594 56.398438 228.90625 56.398438 C 229.597656 56.398438 230.292969 56.484375 230.976562 56.660156 C 235.414062 57.796875 238.101562 62.332031 236.96875 66.777344 C 236.417969 68.925781 235.066406 70.734375 233.15625 71.867188 C 231.25 73 229.011719 73.320312 226.863281 72.769531 C 222.425781 71.636719 219.738281 67.097656 220.871094 62.65625 Z M 312.910156 269.996094 C 314.695312 265.917969 314.789062 261.390625 313.171875 257.242188 L 300.292969 224.238281 L 293.195312 206.042969 C 299.613281 202.871094 302.664062 195.234375 300.011719 188.433594 L 290.929688 165.160156 C 289.574219 161.683594 286.945312 158.941406 283.527344 157.445312 C 280.484375 156.109375 277.144531 155.910156 273.996094 156.839844 L 267.921875 141.269531 C 267.917969 141.269531 267.917969 141.269531 267.917969 141.265625 L 261.226562 124.113281 L 279.378906 53.046875 C 280.085938 50.289062 278.414062 47.46875 275.65625 46.765625 L 196.527344 26.519531 C 193.769531 25.8125 190.953125 27.484375 190.25 30.242188 L 185.0625 50.546875 L 160.347656 44.222656 C 159.011719 43.878906 157.625 44.078125 156.4375 44.78125 C 155.253906 45.488281 154.414062 46.609375 154.070312 47.945312 L 148.886719 68.25 L 124.171875 61.925781 C 121.414062 61.21875 118.597656 62.890625 117.894531 65.648438 L 94.203125 158.394531 L 59.675781 171.886719 C 55.53125 173.507812 52.269531 176.644531 50.484375 180.722656 C 48.699219 184.800781 48.605469 189.328125 50.222656 193.472656 L 51.054688 195.601562 C 51.054688 195.601562 51.054688 195.605469 51.054688 195.605469 L 53.144531 200.964844 L 53.972656 203.082031 L 54.3125 203.957031 C 54.316406 203.964844 54.320312 203.96875 54.320312 203.976562 L 55.597656 207.246094 L 60.960938 220.996094 C 60.960938 220.996094 60.964844 220.996094 60.964844 221 L 66.628906 235.523438 C 66.628906 235.523438 66.632812 235.523438 66.632812 235.523438 L 69.132812 241.933594 L 102.515625 327.496094 L 106.605469 337.96875 C 106.605469 337.972656 106.605469 337.976562 106.605469 337.980469 C 106.640625 338.066406 106.679688 338.152344 106.722656 338.238281 C 109.351562 344.65625 115.566406 348.582031 122.136719 348.582031 C 124.148438 348.582031 126.191406 348.214844 128.171875 347.4375 L 303.71875 278.828125 C 307.859375 277.210938 311.125 274.074219 312.910156 269.996094 Z M 111.328125 340.761719 C 111.839844 340.820312 112.394531 340.855469 113.011719 340.855469 L 113.105469 340.855469 C 113.851562 340.851562 114.453125 340.242188 114.449219 339.496094 C 114.445312 338.753906 113.839844 338.15625 113.097656 338.15625 L 113.09375 338.15625 C 110.515625 338.15625 109.339844 337.546875 109.121094 337.003906 C 109.121094 337 109.121094 337 109.117188 336.996094 L 64.757812 223.300781 C 65.625 223.578125 66.558594 223.785156 67.5625 223.910156 C 67.621094 223.917969 67.675781 223.921875 67.734375 223.921875 C 68.402344 223.921875 68.984375 223.425781 69.070312 222.742188 C 69.164062 222.003906 68.640625 221.328125 67.902344 221.234375 C 66.054688 221 64.53125 220.460938 63.332031 219.652344 L 60.128906 211.4375 C 64.554688 214.601562 70.445312 215.539062 75.882812 213.417969 L 251.425781 144.808594 C 258.589844 142.003906 266.699219 145.5625 269.5 152.734375 L 271.953125 159.023438 L 273.507812 163.007812 L 280.542969 181.039062 L 227.90625 201.613281 C 227.460938 201.789062 227.023438 201.984375 226.605469 202.199219 C 221.574219 204.78125 218.671875 210.136719 219.054688 215.621094 C 219.152344 216.988281 219.453125 218.371094 219.980469 219.714844 C 221.335938 223.191406 223.964844 225.933594 227.382812 227.4375 C 227.832031 227.636719 228.289062 227.808594 228.75 227.957031 C 230.128906 228.398438 231.554688 228.621094 232.984375 228.621094 C 234.703125 228.621094 236.421875 228.300781 238.070312 227.65625 L 290.53125 207.152344 L 294.304688 216.308594 L 310.660156 258.226562 C 312.015625 261.699219 311.9375 265.496094 310.441406 268.914062 C 308.945312 272.328125 306.207031 274.957031 302.738281 276.316406 L 127.191406 344.925781 C 121.425781 347.179688 115.058594 345.3125 111.328125 340.761719 Z M 122.894531 64.460938 C 123.09375 64.460938 123.296875 64.488281 123.503906 64.539062 L 148.214844 70.863281 L 147.332031 74.324219 L 137.789062 71.882812 C 137.351562 71.769531 136.890625 71.882812 136.554688 72.183594 C 136.222656 72.484375 136.058594 72.933594 136.121094 73.378906 C 136.28125 74.515625 136.21875 75.65625 135.933594 76.777344 C 134.734375 81.464844 129.949219 84.296875 125.265625 83.101562 C 124.152344 82.816406 123.117188 82.324219 122.199219 81.636719 C 121.839844 81.371094 121.367188 81.296875 120.945312 81.445312 C 120.519531 81.597656 120.199219 81.949219 120.085938 82.386719 L 92.058594 192.113281 L 87.964844 193.714844 L 120.507812 66.316406 C 120.789062 65.203125 121.792969 64.460938 122.894531 64.460938 Z M 157.8125 47.105469 C 158.199219 46.875 158.628906 46.757812 159.066406 46.757812 C 159.269531 46.757812 159.476562 46.785156 159.679688 46.835938 L 184.394531 53.160156 L 183.511719 56.621094 L 173.96875 54.179688 C 173.53125 54.066406 173.070312 54.179688 172.734375 54.480469 C 172.398438 54.78125 172.234375 55.230469 172.296875 55.675781 C 172.457031 56.8125 172.394531 57.953125 172.109375 59.070312 C 171.53125 61.34375 170.101562 63.25 168.085938 64.445312 C 166.070312 65.640625 163.714844 65.976562 161.445312 65.398438 C 160.328125 65.113281 159.296875 64.621094 158.375 63.933594 C 158.015625 63.664062 157.542969 63.59375 157.121094 63.742188 C 156.695312 63.894531 156.375 64.246094 156.265625 64.679688 L 127.222656 178.371094 L 123.132812 179.96875 L 156.683594 48.613281 C 156.847656 47.976562 157.25 47.441406 157.8125 47.105469 Z M 195.25 29.054688 C 195.449219 29.054688 195.652344 29.078125 195.859375 29.132812 L 274.988281 49.378906 C 276.304688 49.714844 277.101562 51.0625 276.765625 52.378906 L 256.628906 131.210938 C 255.460938 130.902344 254.273438 130.726562 253.082031 130.675781 L 269.429688 66.679688 C 269.539062 66.242188 269.425781 65.777344 269.125 65.441406 C 268.828125 65.109375 268.378906 64.945312 267.933594 65.007812 C 266.796875 65.167969 265.65625 65.105469 264.539062 64.820312 C 262.269531 64.238281 260.363281 62.808594 259.167969 60.792969 C 257.976562 58.777344 257.636719 56.414062 258.214844 54.144531 C 258.503906 53.027344 258.996094 51.996094 259.679688 51.074219 C 259.949219 50.714844 260.019531 50.242188 259.871094 49.816406 C 259.722656 49.394531 259.371094 49.070312 258.933594 48.960938 L 210.144531 36.476562 C 209.707031 36.363281 209.246094 36.476562 208.910156 36.777344 C 208.574219 37.078125 208.410156 37.527344 208.476562 37.972656 C 208.636719 39.109375 208.570312 40.25 208.285156 41.367188 C 207.089844 46.058594 202.304688 48.894531 197.621094 47.695312 C 196.503906 47.410156 195.472656 46.917969 194.554688 46.230469 C 194.191406 45.960938 193.722656 45.890625 193.296875 46.042969 C 192.875 46.191406 192.550781 46.542969 192.441406 46.980469 L 162.390625 164.625 L 158.296875 166.226562 L 192.859375 30.910156 C 193.144531 29.796875 194.148438 29.054688 195.25 29.054688 Z M 288.417969 166.140625 L 297.5 189.417969 C 299.757812 195.210938 296.890625 201.765625 291.101562 204.027344 L 237.085938 225.140625 C 234.28125 226.238281 231.21875 226.175781 228.464844 224.964844 C 226.398438 224.054688 224.6875 222.582031 223.5 220.71875 C 223.101562 220.097656 222.765625 219.433594 222.492188 218.734375 C 221.925781 217.285156 221.683594 215.789062 221.722656 214.324219 C 221.847656 209.933594 224.546875 205.820312 228.890625 204.125 L 282.339844 183.234375 C 282.546875 183.152344 282.757812 183.050781 282.980469 182.914062 C 284.613281 181.910156 285.292969 179.882812 284.59375 178.097656 L 281.148438 169.269531 C 280.597656 167.859375 279.3125 166.917969 277.867188 166.761719 L 274.976562 159.355469 C 277.453125 158.679688 280.0625 158.871094 282.445312 159.914062 C 285.203125 161.125 287.324219 163.335938 288.417969 166.140625 Z M 74.898438 210.902344 C 67.734375 213.707031 59.625 210.148438 56.828125 202.972656 L 56.039062 200.953125 C 60.464844 204.117188 66.355469 205.058594 71.789062 202.933594 L 247.335938 134.324219 C 250.804688 132.964844 254.597656 133.042969 258.011719 134.542969 C 261.425781 136.039062 264.050781 138.777344 265.40625 142.25 L 266.199219 144.28125 C 261.769531 141.113281 255.882812 140.167969 250.441406 142.292969 Z M 70.808594 200.417969 C 68.175781 201.449219 65.421875 201.613281 62.84375 201.0625 L 85.570312 192.179688 L 84.871094 194.921875 Z M 59.039062 199.652344 C 57.285156 198.691406 55.742188 197.351562 54.519531 195.695312 L 88.019531 182.605469 L 86.394531 188.960938 Z M 138.542969 77.445312 C 138.753906 76.621094 138.871094 75.789062 138.898438 74.953125 L 146.664062 76.9375 L 135.234375 121.683594 C 124.582031 128.019531 114.917969 142.113281 110.386719 159.851562 C 108.105469 168.78125 107.335938 177.710938 108.082031 185.851562 L 95.148438 190.90625 L 122.242188 84.832031 C 122.988281 85.210938 123.777344 85.507812 124.597656 85.71875 C 130.722656 87.289062 136.980469 83.574219 138.542969 77.445312 Z M 125.683594 156.550781 C 124.632812 157.964844 123.8125 159.5 123.222656 161.160156 L 119.378906 160.175781 C 118.976562 160.074219 118.613281 160.105469 118.292969 160.269531 C 117.972656 160.433594 117.761719 160.703125 117.667969 161.070312 C 117.566406 161.472656 117.617188 161.824219 117.820312 162.125 C 118.023438 162.421875 118.324219 162.625 118.726562 162.726562 L 122.574219 163.710938 C 122.199219 165.691406 122.226562 167.550781 122.652344 169.289062 C 122.714844 169.550781 122.804688 169.789062 122.882812 170.035156 L 120.039062 181.179688 L 110.703125 184.828125 C 110.101562 177.203125 110.867188 168.875 113 160.519531 C 117.035156 144.722656 125.1875 131.933594 134.277344 125.421875 L 126.605469 155.457031 C 126.289062 155.796875 125.976562 156.160156 125.683594 156.550781 Z M 158.421875 67.128906 C 159.167969 67.507812 159.953125 67.804688 160.777344 68.015625 C 163.742188 68.773438 166.828125 68.332031 169.460938 66.769531 C 172.09375 65.207031 173.964844 62.710938 174.722656 59.742188 C 174.933594 58.917969 175.050781 58.085938 175.074219 57.25 L 182.84375 59.234375 L 171.410156 103.988281 C 160.757812 110.324219 151.09375 124.410156 146.5625 142.148438 C 143.902344 152.578125 143.40625 162.746094 144.722656 171.53125 L 130.316406 177.160156 Z M 162.785156 137.753906 C 162.464844 138.09375 162.15625 138.457031 161.863281 138.847656 C 160.8125 140.257812 159.992188 141.796875 159.402344 143.457031 L 155.554688 142.472656 C 155.15625 142.371094 154.792969 142.398438 154.472656 142.566406 C 154.148438 142.730469 153.941406 142.996094 153.847656 143.367188 C 153.742188 143.769531 153.792969 144.121094 153.996094 144.421875 C 154.203125 144.71875 154.503906 144.921875 154.90625 145.023438 L 158.75 146.007812 C 158.378906 147.988281 158.40625 149.847656 158.832031 151.585938 C 158.894531 151.847656 158.984375 152.085938 159.0625 152.332031 L 155.203125 167.433594 L 147.238281 170.546875 C 146.117188 162.269531 146.660156 152.675781 149.175781 142.816406 C 153.210938 127.019531 161.367188 114.234375 170.457031 107.71875 Z M 194.601562 49.425781 C 195.347656 49.804688 196.132812 50.101562 196.953125 50.3125 C 203.078125 51.878906 209.335938 48.167969 210.898438 42.035156 C 211.109375 41.214844 211.230469 40.382812 211.253906 39.542969 L 256.488281 51.121094 C 256.109375 51.867188 255.8125 52.652344 255.605469 53.476562 C 254.847656 56.445312 255.289062 59.53125 256.847656 62.167969 C 258.410156 64.804688 260.902344 66.675781 263.871094 67.433594 C 264.691406 67.644531 265.523438 67.761719 266.359375 67.789062 L 250.265625 130.800781 C 248.941406 130.972656 247.628906 131.308594 246.351562 131.808594 L 242.054688 133.488281 C 244.042969 122.59375 243.777344 111.957031 241.214844 103.027344 C 238.125 92.261719 232.082031 85.222656 224.195312 83.207031 C 216.3125 81.191406 207.632812 84.460938 199.761719 92.421875 C 192.074219 100.191406 186.03125 111.566406 182.742188 124.445312 C 179.8125 135.914062 179.378906 147.378906 181.445312 157.175781 L 165.480469 163.414062 Z M 228.25 136.828125 L 231.425781 137.644531 L 227.316406 139.25 C 227.679688 138.457031 227.996094 137.65625 228.25 136.828125 Z M 233.667969 135.820312 C 233.460938 135.519531 233.160156 135.320312 232.757812 135.21875 L 228.867188 134.222656 C 229.320312 131.273438 228.960938 128.71875 227.785156 126.558594 C 226.609375 124.394531 224.816406 123.007812 222.40625 122.390625 C 220.554688 121.914062 218.960938 122.007812 217.621094 122.671875 C 216.285156 123.335938 215.167969 124.285156 214.277344 125.523438 C 213.386719 126.761719 212.371094 128.4375 211.238281 130.550781 C 210.242188 132.40625 209.371094 133.871094 208.632812 134.949219 C 207.898438 136.03125 206.996094 136.859375 205.925781 137.441406 C 204.855469 138.027344 203.621094 138.140625 202.234375 137.785156 C 200.195312 137.261719 198.769531 136.105469 197.957031 134.316406 C 197.148438 132.527344 197.066406 130.367188 197.714844 127.832031 C 198.171875 126.039062 198.847656 124.546875 199.746094 123.359375 C 200.640625 122.171875 201.894531 121.011719 203.5 119.875 C 203.894531 119.613281 204.140625 119.296875 204.234375 118.925781 C 204.300781 118.679688 204.234375 118.421875 204.039062 118.15625 C 203.839844 117.894531 203.574219 117.71875 203.234375 117.632812 C 202.738281 117.503906 202.242188 117.589844 201.734375 117.890625 C 200.324219 118.648438 199.09375 119.734375 198.039062 121.144531 C 196.988281 122.554688 196.167969 124.09375 195.578125 125.753906 L 191.734375 124.769531 C 191.332031 124.664062 190.96875 124.695312 190.648438 124.859375 C 190.328125 125.027344 190.117188 125.292969 190.023438 125.664062 C 189.921875 126.066406 189.972656 126.417969 190.175781 126.714844 C 190.378906 127.015625 190.679688 127.214844 191.082031 127.320312 L 194.929688 128.304688 C 194.554688 130.28125 194.582031 132.144531 195.007812 133.882812 C 195.4375 135.621094 196.214844 137.082031 197.347656 138.261719 C 198.476562 139.441406 199.875 140.242188 201.546875 140.667969 C 203.554688 141.183594 205.28125 141.089844 206.726562 140.390625 C 208.171875 139.6875 209.367188 138.691406 210.304688 137.402344 C 211.242188 136.109375 212.308594 134.363281 213.492188 132.164062 C 214.476562 130.375 215.3125 128.972656 216 127.960938 C 216.683594 126.953125 217.5 126.171875 218.445312 125.625 C 219.394531 125.074219 220.46875 124.957031 221.675781 125.261719 C 223.714844 125.785156 225.109375 126.925781 225.863281 128.683594 C 226.613281 130.441406 226.660156 132.617188 225.996094 135.214844 C 225.476562 137.238281 224.519531 139.128906 223.136719 140.882812 L 183.988281 156.183594 C 182.109375 146.886719 182.570312 136.015625 185.355469 125.113281 C 188.527344 112.691406 194.324219 101.753906 201.679688 94.316406 C 207.507812 88.421875 213.726562 85.324219 219.570312 85.324219 C 220.910156 85.324219 222.234375 85.488281 223.527344 85.820312 C 230.449219 87.589844 235.808594 93.964844 238.621094 103.769531 C 241.199219 112.753906 241.339844 123.585938 239.082031 134.648438 L 233.84375 136.695312 C 233.894531 136.367188 233.839844 136.074219 233.667969 135.820312 Z M 259.183594 132.113281 L 260.082031 128.601562 L 262.105469 133.789062 C 261.199219 133.140625 260.222656 132.578125 259.183594 132.113281 Z M 88.839844 179.386719 L 53.121094 193.347656 C 52.988281 193.0625 52.851562 192.785156 52.734375 192.492188 C 51.378906 189.015625 51.457031 185.222656 52.953125 181.804688 C 54.449219 178.386719 57.1875 175.757812 60.65625 174.402344 L 93.378906 161.613281 Z M 202.617188 306.390625 C 202.886719 307.085938 202.546875 307.871094 201.851562 308.140625 L 190.878906 312.429688 C 190.714844 312.492188 190.550781 312.523438 190.386719 312.523438 C 189.847656 312.523438 189.339844 312.195312 189.132812 311.664062 C 188.859375 310.96875 189.203125 310.1875 189.898438 309.914062 L 200.871094 305.625 C 201.5625 305.355469 202.34375 305.699219 202.617188 306.390625 Z M 180.667969 314.96875 C 180.941406 315.664062 180.597656 316.445312 179.902344 316.71875 L 168.929688 321.007812 C 168.769531 321.070312 168.601562 321.101562 168.441406 321.101562 C 167.902344 321.101562 167.390625 320.773438 167.183594 320.242188 C 166.914062 319.546875 167.253906 318.765625 167.949219 318.492188 L 178.921875 314.203125 C 179.617188 313.933594 180.398438 314.273438 180.667969 314.96875 Z M 158.722656 323.546875 C 158.992188 324.242188 158.652344 325.023438 157.957031 325.296875 L 146.984375 329.585938 C 146.820312 329.644531 146.65625 329.675781 146.492188 329.675781 C 145.953125 329.675781 145.445312 329.351562 145.238281 328.816406 C 144.964844 328.125 145.308594 327.339844 146.003906 327.070312 L 156.976562 322.78125 C 157.671875 322.511719 158.453125 322.851562 158.722656 323.546875 Z M 268.457031 280.65625 C 268.730469 281.351562 268.386719 282.136719 267.691406 282.40625 L 256.71875 286.695312 C 256.558594 286.757812 256.390625 286.789062 256.226562 286.789062 C 255.6875 286.789062 255.179688 286.460938 254.972656 285.929688 C 254.699219 285.234375 255.042969 284.453125 255.738281 284.179688 L 266.710938 279.890625 C 267.40625 279.621094 268.1875 279.964844 268.457031 280.65625 Z M 290.40625 272.082031 C 290.675781 272.773438 290.332031 273.558594 289.640625 273.828125 L 278.664062 278.117188 C 278.503906 278.179688 278.339844 278.210938 278.175781 278.210938 C 277.636719 278.210938 277.125 277.882812 276.917969 277.351562 C 276.648438 276.65625 276.992188 275.875 277.683594 275.601562 L 288.65625 271.3125 C 289.351562 271.042969 290.132812 271.386719 290.40625 272.082031 Z M 136.007812 333.875 L 125.035156 338.164062 C 124.875 338.226562 124.707031 338.253906 124.546875 338.253906 C 124.007812 338.253906 123.496094 337.929688 123.289062 337.394531 C 123.019531 336.703125 123.359375 335.917969 124.054688 335.648438 L 135.027344 331.359375 C 135.722656 331.089844 136.503906 331.429688 136.773438 332.125 C 137.046875 332.820312 136.703125 333.601562 136.007812 333.875 Z M 224.5625 297.8125 C 224.835938 298.507812 224.492188 299.289062 223.796875 299.5625 L 212.824219 303.851562 C 212.664062 303.914062 212.496094 303.945312 212.335938 303.945312 C 211.792969 303.945312 211.285156 303.617188 211.078125 303.085938 C 210.808594 302.390625 211.148438 301.605469 211.84375 301.335938 L 222.816406 297.046875 C 223.511719 296.777344 224.292969 297.117188 224.5625 297.8125 Z M 246.511719 289.234375 C 246.78125 289.929688 246.4375 290.714844 245.746094 290.984375 L 234.773438 295.273438 C 234.609375 295.335938 234.445312 295.367188 234.28125 295.367188 C 233.742188 295.367188 233.234375 295.039062 233.023438 294.507812 C 232.753906 293.8125 233.097656 293.03125 233.789062 292.757812 L 244.765625 288.46875 C 245.457031 288.199219 246.238281 288.542969 246.511719 289.234375 Z M 287.390625 225.492188 L 283.105469 214.511719 C 282.835938 213.816406 283.175781 213.035156 283.871094 212.761719 C 284.566406 212.492188 285.347656 212.832031 285.617188 213.527344 L 289.902344 224.511719 C 290.171875 225.207031 289.832031 225.988281 289.136719 226.261719 C 288.976562 226.324219 288.808594 226.351562 288.648438 226.351562 C 288.109375 226.355469 287.597656 226.027344 287.390625 225.492188 Z M 291.675781 236.476562 C 291.40625 235.78125 291.746094 235 292.441406 234.726562 C 293.136719 234.460938 293.917969 234.800781 294.1875 235.496094 L 298.472656 246.476562 C 298.746094 247.171875 298.402344 247.953125 297.707031 248.226562 C 297.546875 248.289062 297.378906 248.320312 297.21875 248.320312 C 296.679688 248.320312 296.167969 247.992188 295.960938 247.460938 Z M 268.476562 169.597656 L 272.761719 180.582031 C 273.03125 181.273438 272.691406 182.058594 271.996094 182.328125 C 271.835938 182.390625 271.667969 182.421875 271.507812 182.421875 C 270.964844 182.421875 270.457031 182.097656 270.25 181.5625 L 265.964844 170.582031 C 265.695312 169.886719 266.035156 169.101562 266.730469 168.832031 C 267.421875 168.5625 268.207031 168.902344 268.476562 169.597656 Z M 78.832031 219.871094 L 89.808594 215.582031 C 90.5 215.3125 91.28125 215.652344 91.554688 216.347656 C 91.824219 217.042969 91.480469 217.824219 90.789062 218.097656 L 79.8125 222.386719 C 79.652344 222.445312 79.488281 222.476562 79.324219 222.476562 C 78.785156 222.476562 78.277344 222.152344 78.066406 221.617188 C 77.796875 220.925781 78.140625 220.140625 78.832031 219.871094 Z M 100.015625 213.039062 C 99.746094 212.347656 100.085938 211.5625 100.78125 211.292969 L 111.753906 207.003906 C 112.449219 206.734375 113.230469 207.074219 113.5 207.769531 C 113.773438 208.464844 113.429688 209.246094 112.734375 209.519531 L 101.761719 213.808594 C 101.601562 213.871094 101.433594 213.898438 101.269531 213.898438 C 100.730469 213.898438 100.222656 213.574219 100.015625 213.039062 Z M 143.910156 195.882812 C 143.636719 195.191406 143.980469 194.40625 144.675781 194.136719 L 155.648438 189.847656 C 156.34375 189.574219 157.125 189.917969 157.394531 190.613281 C 157.664062 191.308594 157.324219 192.089844 156.628906 192.363281 L 145.65625 196.652344 C 145.496094 196.714844 145.328125 196.742188 145.164062 196.742188 C 144.625 196.742188 144.117188 196.417969 143.910156 195.882812 Z M 122.726562 202.714844 L 133.699219 198.425781 C 134.394531 198.15625 135.175781 198.496094 135.449219 199.191406 C 135.71875 199.886719 135.375 200.667969 134.683594 200.941406 L 123.707031 205.230469 C 123.546875 205.289062 123.382812 205.320312 123.21875 205.320312 C 122.679688 205.320312 122.167969 204.996094 121.960938 204.460938 C 121.691406 203.769531 122.035156 202.984375 122.726562 202.714844 Z M 254.515625 151.230469 C 255.160156 151.035156 255.824219 150.9375 256.492188 150.933594 C 259.304688 150.933594 261.882812 152.695312 262.902344 155.3125 L 264.191406 158.613281 C 264.464844 159.308594 264.121094 160.089844 263.425781 160.363281 C 263.265625 160.425781 263.101562 160.457031 262.9375 160.457031 C 262.398438 160.457031 261.886719 160.128906 261.679688 159.597656 L 260.390625 156.292969 C 259.769531 154.703125 258.207031 153.632812 256.496094 153.632812 C 256.089844 153.632812 255.6875 153.695312 255.296875 153.8125 C 254.582031 154.027344 253.832031 153.625 253.617188 152.910156 C 253.402344 152.199219 253.804688 151.445312 254.515625 151.230469 Z M 166.621094 185.558594 L 177.59375 181.269531 C 178.289062 181 179.070312 181.339844 179.34375 182.035156 C 179.613281 182.730469 179.269531 183.511719 178.578125 183.785156 L 167.601562 188.074219 C 167.441406 188.136719 167.277344 188.164062 167.113281 188.164062 C 166.574219 188.164062 166.0625 187.839844 165.855469 187.308594 C 165.585938 186.613281 165.925781 185.828125 166.621094 185.558594 Z M 210.515625 168.402344 L 221.488281 164.113281 C 222.183594 163.84375 222.964844 164.1875 223.234375 164.878906 C 223.507812 165.574219 223.164062 166.359375 222.46875 166.628906 L 211.496094 170.917969 C 211.335938 170.980469 211.167969 171.007812 211.007812 171.007812 C 210.46875 171.007812 209.957031 170.683594 209.75 170.152344 C 209.480469 169.457031 209.820312 168.671875 210.515625 168.402344 Z M 232.460938 159.824219 L 243.4375 155.535156 C 244.128906 155.265625 244.910156 155.609375 245.183594 156.300781 C 245.453125 156.996094 245.109375 157.777344 244.417969 158.050781 L 233.445312 162.339844 C 233.28125 162.402344 233.117188 162.433594 232.953125 162.433594 C 232.414062 162.433594 231.90625 162.105469 231.695312 161.574219 C 231.425781 160.878906 231.769531 160.097656 232.460938 159.824219 Z M 199.542969 172.691406 C 200.234375 172.421875 201.019531 172.765625 201.289062 173.457031 C 201.558594 174.152344 201.21875 174.933594 200.523438 175.207031 L 189.550781 179.496094 C 189.386719 179.558594 189.222656 179.589844 189.058594 179.589844 C 188.519531 179.589844 188.011719 179.261719 187.800781 178.730469 C 187.53125 178.035156 187.875 177.25 188.570312 176.980469 Z M 304.535156 263.300781 C 304.535156 265.898438 303.035156 268.320312 300.714844 269.472656 C 300.519531 269.566406 300.316406 269.613281 300.113281 269.613281 C 299.617188 269.613281 299.140625 269.335938 298.90625 268.863281 C 298.574219 268.195312 298.847656 267.382812 299.515625 267.054688 C 300.925781 266.355469 301.835938 264.878906 301.835938 263.300781 C 301.835938 262.78125 301.742188 262.273438 301.550781 261.785156 L 300.246094 258.441406 C 299.976562 257.75 300.316406 256.964844 301.011719 256.695312 C 301.707031 256.421875 302.488281 256.765625 302.757812 257.460938 L 304.0625 260.804688 C 304.375 261.605469 304.535156 262.445312 304.535156 263.300781 Z M 231.621094 205.957031 C 227.183594 207.691406 224.984375 212.714844 226.71875 217.15625 C 228.046875 220.566406 231.316406 222.65625 234.773438 222.65625 C 235.816406 222.65625 236.875 222.464844 237.902344 222.0625 C 242.339844 220.328125 244.539062 215.308594 242.808594 210.867188 C 241.074219 206.425781 236.054688 204.226562 231.621094 205.957031 Z M 229.230469 216.175781 C 228.039062 213.121094 229.550781 209.664062 232.601562 208.472656 C 233.308594 208.195312 234.039062 208.066406 234.753906 208.066406 C 237.132812 208.066406 239.378906 209.503906 240.296875 211.847656 C 241.488281 214.902344 239.972656 218.355469 236.921875 219.550781 C 233.871094 220.742188 230.421875 219.226562 229.230469 216.175781 Z M 229.230469 216.175781 " fill-opacity="1" fill-rule="nonzero"/></g></svg>